<?xml version="1.0" standalone="no"?>
<!DOCTYPE svg PUBLIC "-//W3C//DTD SVG 20010904//EN"
 "http://www.w3.org/TR/2001/REC-SVG-20010904/DTD/svg10.dtd">
<svg version="1.0" xmlns="http://www.w3.org/2000/svg"
 width="275.000000pt" height="275.000000pt" viewBox="0 0 275.000000 275.000000"
 preserveAspectRatio="xMidYMid meet">
<metadata>
Created by potrace 1.14, written by Peter Selinger 2001-2017
</metadata>
<g transform="translate(0.000000,275.000000) scale(0.100000,-0.100000)"
fill="#000000" stroke="none">
<path d="M168 2450 c-27 -3 -53 -11 -59 -17 -9 -9 -12 -140 -12 -479 l0 -467
23 -19 c21 -17 47 -18 361 -18 242 0 340 3 345 11 12 20 15 96 4 123 l-10 26
-235 0 -235 0 0 140 0 140 194 0 c183 0 196 1 209 20 17 25 14 120 -5 131 -7
4 -80 8 -163 8 -82 -1 -169 0 -192 0 l-43 1 0 120 0 120 229 0 c178 0 231 3
240 13 23 29 14 146 -12 148 -58 4 -603 3 -639 -1z"/>
<path d="M1005 2450 c-39 -7 -41 -25 -15 -108 137 -428 284 -865 296 -877 16
-16 19 -16 165 -19 125 -2 156 6 174 47 8 18 54 166 102 329 48 164 91 294 95
290 3 -4 50 -146 103 -317 56 -177 105 -318 116 -329 16 -18 33 -20 152 -20
108 0 139 3 159 16 22 14 48 84 177 476 83 252 151 469 151 481 0 13 -8 25
-20 29 -17 6 -127 8 -192 3 -22 -1 -31 -27 -149 -436 -55 -192 -102 -352 -104
-353 -2 -2 -18 43 -35 100 -18 56 -45 145 -61 196 -16 50 -42 134 -58 185 -16
50 -43 138 -60 194 -30 97 -33 103 -64 111 -52 14 -216 7 -233 -9 -7 -8 -63
-181 -124 -384 -61 -204 -113 -377 -116 -385 -4 -9 -12 5 -21 35 -8 28 -23 79
-34 115 -10 36 -35 121 -55 190 -99 345 -123 423 -133 433 -11 11 -165 17
-216 7z"/>
<path d="M2158 1335 c-133 -36 -207 -134 -209 -274 -1 -58 4 -81 26 -126 35
-72 84 -111 227 -179 72 -35 126 -67 142 -87 44 -52 32 -121 -30 -163 -34 -23
-46 -25 -119 -22 -70 2 -92 8 -156 39 -83 41 -94 44 -103 21 -8 -20 -8 -102 0
-131 13 -49 129 -93 256 -98 240 -10 390 111 391 314 1 66 -3 84 -28 130 -40
72 -79 102 -223 172 -145 69 -172 94 -172 154 0 107 121 135 278 66 38 -17 71
-26 76 -21 5 5 11 37 13 73 5 57 3 66 -17 85 -13 12 -44 29 -69 38 -59 21
-220 26 -283 9z"/>
<path d="M433 1332 c-31 -5 -36 -14 -86 -157 -25 -71 -97 -280 -161 -464 -64
-183 -116 -341 -116 -351 0 -11 5 -22 12 -26 20 -13 148 -11 166 2 9 7 32 59
52 115 l35 104 188 0 187 1 31 -97 c42 -134 41 -132 135 -134 103 -1 114 2
114 32 0 21 -68 222 -267 788 -19 55 -40 115 -46 133 -6 18 -17 38 -25 44 -12
10 -169 18 -219 10z m155 -405 c34 -106 62 -198 62 -203 0 -7 -225 -12 -261
-5 -8 1 123 401 131 401 4 0 34 -87 68 -193z"/>
<path d="M1164 1332 c-44 -8 -44 -12 -44 -514 0 -436 1 -479 17 -485 28 -11
162 -8 175 5 7 7 11 73 11 207 l1 195 43 0 c62 0 108 -22 137 -67 15 -22 51
-102 82 -179 31 -76 62 -146 70 -154 15 -15 152 -21 187 -7 27 10 21 40 -34
170 -72 172 -95 214 -140 257 l-39 37 47 25 c54 27 107 91 123 146 13 49 13
135 -2 183 -25 85 -123 158 -232 174 -50 8 -367 13 -402 7z m362 -173 c45 -22
72 -71 70 -126 -5 -96 -58 -134 -190 -137 l-81 -1 -1 135 c-1 74 0 138 2 141
7 12 171 1 200 -12z"/>
</g>
</svg>
